<?xml version="1.0" encoding="utf-8"?>
<!-- Generator: Adobe Illustrator 16.0.0, SVG Export Plug-In . SVG Version: 6.00 Build 0)  -->
<!DOCTYPE svg PUBLIC "-//W3C//DTD SVG 1.1//EN" "http://www.w3.org/Graphics/SVG/1.1/DTD/svg11.dtd">
<svg version="1.1" id="Layer_1" xmlns="http://www.w3.org/2000/svg" xmlns:xlink="http://www.w3.org/1999/xlink" x="0px" y="0px"
	 width="149px" height="200px" viewBox="0 0 149 200" enable-background="new 0 0 149 200" xml:space="preserve">
<g id="OrFv8n_3_" opacity="0.5">
	<g>
		<path fill="#A6B1DA" d="M115.673,191.146c-2.399,0-4.313,0.037-6.224-0.011c-1.902-0.048-3.805-0.147-5.701-0.289
			c-1.284-0.096-2.57-0.188-3.854-0.275c-1.471-0.101-2.939-0.251-4.41-0.364c-0.611-0.046-1.227-0.061-1.837-0.083
			c-1.652-0.056-3.292-0.252-4.941-0.321c-1.307-0.055-2.61-0.111-3.912-0.194c-1.059-0.066-2.112-0.093-3.167-0.063
			c-1.632,0.046-3.26,0.168-4.886,0.349c-2.52,0.278-4.937,0.937-7.315,1.768c-1.331,0.466-2.552,1.169-3.781,1.845
			c-1.549,0.855-3.145,1.612-4.763,2.321c-2.372,1.038-4.831,1.823-7.341,2.449c-1.662,0.414-3.349,0.684-5.055,0.846
			c-1.519,0.146-3.044,0.184-4.563,0.302c-2.071,0.164-4.129-0.041-6.189-0.06c-1.972-0.019-3.939-0.305-5.906-0.516
			c-2.264-0.242-4.513-0.574-6.748-0.987c-1.866-0.344-3.602-1.057-5.026-2.353c-0.993-0.902-1.622-2.026-1.779-3.394
			c-0.245-2.128,0.706-3.649,2.361-4.854c1.512-1.101,3.233-1.577,5.052-1.81c1.54-0.195,3.073-0.438,4.612-0.632
			c1.246-0.157,2.497-0.266,3.743-0.41c1.309-0.15,2.621-0.288,3.921-0.49c1.286-0.199,2.573-0.386,3.854-0.617
			c1.306-0.236,2.561-0.64,3.828-1.009c0.544-0.158,1.081-0.341,1.621-0.516c0.63-0.203,1.197-0.506,1.537-1.104
			c0.732-1.29,1.97-1.794,3.308-2.152c1.463-0.393,2.965-0.507,4.465-0.658c1.959-0.196,3.926-0.216,5.891-0.305
			c2.195-0.099,4.39-0.122,6.578-0.041c2.428,0.092,4.854,0.109,7.279,0.187c1.119,0.037,2.238,0.01,3.356,0.076
			c1.85,0.107,3.701,0.218,5.547,0.386c1.998,0.183,3.993,0.418,5.985,0.661c1.536,0.188,3.065,0.102,4.602,0.006
			c0.292-0.02,0.592,0.072,0.888,0.074c1.944,0.009,3.892-0.066,5.83,0.022c2.813,0.129,5.623-0.001,8.431,0.091
			c1.835,0.06,3.667,0.245,5.501,0.358c0.707,0.043,1.417,0.054,2.123,0.082c1.511,0.06,3.022,0.164,4.539,0.122
			c1.182-0.034,2.363,0.06,3.543,0.11c1.958,0.082,3.921,0.236,5.868,0.473c1.941,0.235,3.899,0.418,5.802,0.928
			c1.499,0.403,2.879,1.037,3.954,2.2c0.815,0.883,1.207,2.252,0.277,3.347c-0.56,0.661-1.334,1.071-2.137,1.351
			c-2.468,0.859-4.998,1.493-7.575,1.928c-2.245,0.378-4.511,0.578-6.767,0.856c-1.282,0.157-2.566,0.213-3.852,0.295
			C119.888,191.221,117.536,191.071,115.673,191.146z"/>
	</g>
</g>
<polygon fill="#6A90B4" points="15.929,55.092 2.226,55.092 2.226,0.941 96.016,0.941 96.016,54.314 27.091,55.266 28.848,67.47 "/>
<polygon fill="#6A90B4" points="8.698,85.024 7.044,85.024 7.044,75.75 18.36,75.75 18.36,84.891 10.044,85.054 10.256,87.144 "/>
<rect x="17.746" y="20.97" fill="#FFFFFF" width="63.528" height="4.06"/>
<rect x="17.746" y="33.824" fill="#FFFFFF" width="63.528" height="4.059"/>
<g>
	<polygon fill="#ACACAC" points="77.587,110.835 50.746,110.835 50.746,47.91 147,47.91 147,109.508 103.36,109.508 65.983,131.262 
			"/>
	<rect x="66.699" y="69.78" fill="#FFFFFF" width="63.529" height="4.06"/>
	<rect x="66.699" y="82.634" fill="#FFFFFF" width="63.529" height="4.06"/>
</g>
<g>
	<g>
		<path fill="#EEA886" d="M25.717,93.088c0,0-0.811-1.495-1.091-1.83c-0.279-0.334,0.43-1.16,1-0.279
			c0.57,0.883,0.919,1.449,0.919,1.449L25.717,93.088z"/>
	</g>
</g>
<g>
	<g>
		<path fill="#514E58" d="M26.546,94.597l-2.873-6.494c-0.19-0.427,0.06-0.914,0.534-1.04l3.387-0.908
			c0.425-0.114,0.87,0.107,1.007,0.503l2.341,6.715c0.149,0.425-0.117,0.879-0.578,0.99l-2.855,0.685
			C27.113,95.144,26.703,94.952,26.546,94.597z"/>
	</g>
</g>
<g>
	<g>
		<path fill="#EEA886" d="M25.552,94.117c0,0-0.342-0.554,0.581-1.6c1.223-1.389,2.966-3.019,3.415-2.989
			c0.646,0.042,0.562,0.525-0.278,1.267c-0.841,0.74-1.121,0.981-1.121,0.981s1.856-1.02,2.4-0.991
			c0.543,0.028,0.815,0.522,0.538,0.744c-0.278,0.221-1.003,0.599-1.003,0.599s0.837-0.329,1.073-0.055
			c0.176,0.203,0.367,0.521-0.345,0.997c0,0,0.802,0.321,0.183,1.02c-0.62,0.7-0.673,1.1-0.493,1.935
			c0.178,0.835-0.274,2.21-0.274,2.21l-2.802-0.169c0,0-0.502-2.067-0.887-2.554C26.153,95.022,25.552,94.117,25.552,94.117z"/>
	</g>
</g>
<g>
	<g>
		<path fill="#38373D" d="M28.226,87.04c0.023,0.171-0.104,0.325-0.285,0.347c-0.182,0.021-0.347-0.099-0.37-0.269
			c-0.023-0.17,0.105-0.325,0.286-0.347C28.038,86.75,28.203,86.87,28.226,87.04z"/>
	</g>
</g>
<g>
	<g>
		<path fill="#232729" d="M43.862,185.521c0,0-1.391,1.956-3.343,2.379c-1.951,0.425-3.874,1.097-3.888,2.255
			c-0.014,1.158,5.642,1.849,7.875,0.682c3.333-1.743,3.672-1.218,4.041-2.089s-0.443-3.201-0.42-3.478
			C48.156,184.928,43.862,185.521,43.862,185.521z"/>
	</g>
</g>
<g>
	<g>
		<path fill="#81807E" d="M44.078,184.555c0,0-0.254,0.947-0.216,0.967c0.038,0.019,4.397,0.509,4.265-0.251
			c-0.106-0.616-0.26-1.284-0.26-1.284L44.078,184.555z"/>
	</g>
</g>
<g>
	<g>
		<path fill="#232729" d="M54.563,185.633c0,0-0.992,1.873-2.688,2.511c-1.812,0.683-3.266,1.466-3.232,2.594
			c0.034,1.129,4.431,2.272,7.629,0.107c2.021-1.369,2.662-1.375,2.986-2.236c0.324-0.863-0.563-3.102-0.551-3.373
			C58.722,184.901,54.563,185.633,54.563,185.633z"/>
	</g>
</g>
<g>
	<g>
		<path fill="#81807E" d="M54.515,184.662c0,0,0.012,0.953,0.049,0.971c0.038,0.019,4.251,0.346,4.145-0.397
			c-0.086-0.59-0.41-1.301-0.41-1.301L54.515,184.662z"/>
	</g>
</g>
<g>
	<g>
		<path fill="#757474" d="M39.066,127.46c0,0-2.599,13.593-3.494,18.54c-0.761,4.211-1.363,10.553-0.999,13.595
			c0.451,3.762,8.658,23.952,8.422,25.056c-0.237,1.104,6.181,0.498,6.181,0.498s-6.306-23.887-5.445-27.936
			c0.637-2.998,4.101-21.11,4.957-20.088c0.854,1.022,1.916,18.803,2.55,21.752c0.634,2.951,2.58,26.271,2.58,26.271
			s4.35,0.603,5.511-0.322c0,0,0.529-19.912,0.125-25.445c-0.152-2.107,2.627-25.283-0.938-34.612
			C56.632,119.837,39.066,127.46,39.066,127.46z"/>
	</g>
</g>
<g>
	<g>
		<path fill="#8BBBE5" d="M69.889,113.159c0,0.228-0.457,1.141-1.188,2.453c-1.069-2.012-1.908-3.663-2.184-4.27
			c-0.899-2.001-5.542-6.587-5.542-6.587s0,0.004-0.002,0.009c0,0.003-0.001,0.004-0.001,0.006
			c-0.001,0.001-0.001,0.004-0.001,0.005c-0.002,0.006-0.005,0.013-0.006,0.019c-0.004,0.011-0.007,0.023-0.012,0.041
			c-0.003,0.008-0.005,0.015-0.007,0.024c-0.002,0.005-0.003,0.011-0.005,0.018c-0.254,0.885-1.805,6.419-1.861,9.146
			c-0.063,2.969-0.338,11.384-0.338,11.384s-9.196,1.905-19.677,2.054c0,0-0.105-2.337-0.145-5.845
			c-0.016-1.469,0.266-4.225,0.188-6.782c0-0.013-0.001-0.026-0.001-0.039c0-0.032-0.001-0.063-0.003-0.097
			c-0.001-0.012-0.001-0.022-0.001-0.032v-0.007c-0.05-1.404,0.086-2.791-0.192-3.803l-0.231-1.347
			c-0.615,1.977-3.832,5.502-3.832,5.502c-5.158,6.302-7.304-15.838-8.361-17.327l4.808-1.251l2.44,9.186l1.114-3.023v-0.001
			l1.191-3.235c0.135-0.1,1.553-4.59,2.706-5.105c1.175-0.525,4.125-1.767,5.408-2.428c0.655-0.336,1.273-0.645,1.81-0.875
			l0.081-0.035l0.001-0.001c0.886-0.38,1.473-0.632,1.473-0.632s0.001,0,0.003,0c0.021-0.002,0.16-0.014,0.385-0.035
			c1.233-0.11,5.069-0.448,6.354-0.52c0.105-0.006,0.195-0.009,0.263-0.01c0.06-0.003,0.103-0.004,0.13-0.001
			c0.162,0.009,0.952,0.269,1.992,0.641l0,0c0.041,0.014,0.08,0.027,0.119,0.042c0.049,0.018,0.098,0.035,0.147,0.053
			c0.09,0.033,0.182,0.065,0.275,0.1c0.186,0.069,0.376,0.138,0.57,0.21c0.065,0.025,0.134,0.05,0.202,0.076
			c2.079,0.776,4.404,1.825,5.027,2.117c1.24,0.583,1.742,1.667,2.89,4.872c1.739,5.241,3.943,13.262,4.012,15.244
			C69.889,113.101,69.889,113.131,69.889,113.159z"/>
	</g>
</g>
<g>
	<g>
		<path fill="#EEA886" d="M54.618,89.155c-0.055,2.598-5.399,4.018-5.399,4.018s-2.236-2.637-1.702-2.891
			c0.209-0.098,0.295-0.491,0.321-0.933c0.024-0.42-0.004-0.884-0.03-1.178c-0.017-0.184-0.032-0.302-0.032-0.302
			s0.765-0.757,1.736-1.661c1.698-1.578,4.032-3.602,4.035-2.797c0,0.042-0.006,0.093-0.02,0.152
			C53.118,85.376,54.618,89.155,54.618,89.155z"/>
	</g>
</g>
<g>
	<g>
		<path fill="#A77860" d="M52.56,85.351L52.56,85.351c-0.012,0.016-0.237,0.333-0.625,0.792c-0.82,0.971-2.362,2.566-4.097,3.206
			c0.024-0.42-0.004-0.884-0.03-1.178c-0.178-0.004-0.355-0.023-0.532-0.06c0.477-0.782,1.163-1.601,1.163-1.601l1.073-0.302
			L52.56,85.351z"/>
	</g>
</g>
<g>
	<g>
		<path fill="#EEA886" d="M53.586,83.447c-0.462,0.947-0.901,1.632-1.026,1.904l0,0c-0.082,0.177-0.303,0.466-0.625,0.792
			c-0.881,0.893-2.519,2.069-4.127,2.028c-0.178-0.004-0.355-0.023-0.532-0.06c-0.65-0.132-1.417-0.417-1.839-1.195
			c-3.335-6.141-0.921-11.163-0.921-11.163s9.118-2.426,10.545,0.157C56.062,77.721,54.673,81.225,53.586,83.447z"/>
	</g>
</g>
<g>
	<g>
		<path fill="#424242" d="M44.516,75.754c0,0-0.847-0.045-1.056-1.554c-0.208-1.492,0.21-1.905,0.21-1.905s3.765-1.483,5.117-1.676
			c1.352-0.193,4.675-0.377,5.454,0.46c0,0,1.893-0.414,2.409,2.542c0.818,4.69-2.787,9.244-2.787,9.244s0.029-3.064-0.688-3.47
			c-0.718-0.406-1.338,0.56-1.338,0.56l-1.47,0.247c0,0,2.232-4.532-0.444-4.7C47.245,75.333,46.048,76.017,44.516,75.754z"/>
	</g>
</g>
<g>
	<g>
		<path fill="#EEA886" d="M51.878,78.733c0.139-1.35,2.734-1.866,2.561-0.451c-0.174,1.415-1.452,2.773-2.042,2.726
			C51.806,80.961,51.771,79.762,51.878,78.733z"/>
	</g>
</g>
<g>
	<g>
		<path fill="#323657" d="M49.227,93.173c0,0,0.574,2.157,0.367,2.762c0,0-1.262,0.432-2.168-0.108
			C47.426,95.827,48.068,94.317,49.227,93.173z"/>
	</g>
</g>
<g>
	<g>
		<path fill="#8BBBE5" d="M46.184,95.783c0,0,1.787,1.298,5.388,0.225l-2.353-2.835L46.184,95.783z"/>
	</g>
</g>
<g>
	<g>
		<path fill="#8BBBE5" d="M47.108,95.33c0,0,1.174,0.854,3.539,0.148l-1.42-2.305L47.108,95.33z"/>
	</g>
</g>
<g>
	<g>
		<path fill="#3C4145" d="M56.901,128.506c0,0,1.086,1.258,2.836,2.002l5.885-9.953l-3.05-5.544
			C62.572,115.011,57.04,127.535,56.901,128.506z"/>
	</g>
</g>
<g>
	<g>
		<path fill="#49617F" d="M56.774,90.388l-2.156-1.232c0,0-0.061,1.113-5.399,4.018l1.516,4.016L56.774,90.388z"/>
	</g>
</g>
<g>
	<g>
		<path fill="#49617F" d="M47.798,89.715c0,0,0.084,1.201,1.42,3.458l-2.96,3.629l-0.216-5.886L47.798,89.715z"/>
	</g>
</g>
<g>
	<path fill="#DE9D7D" d="M58.319,127.082c0,0-0.7,1.621-1.624,1.881c-0.923,0.258-1.798,0.775-2.198,1.386
		c-0.398,0.61,4.521,2.303,4.521,2.303s2.022-2.983,1.848-4.274C60.692,127.082,58.319,127.082,58.319,127.082z"/>
</g>
<g>
	<path fill="#8BBBE5" d="M60.942,104.877c0,0,3.043,4.178,2.573,8.172l-7.139,15.247c0,0,2.259,1.832,4.172,2.583
		c0,0,8.342-15.26,9.342-17.719C69.891,113.16,66.597,103.939,60.942,104.877z"/>
</g>
<g>
	<polygon fill="#757474" points="54.056,130.292 60.497,133.274 60.251,135.695 53.38,131.536 	"/>
</g>
<g>
	<path fill="#757474" d="M53.704,185.148c0,0,3.764,0.794,5.729-0.322l0.117-1.819c0,0-3.01,0.558-6.156,0.235L53.704,185.148z"/>
</g>
<g>
	<path fill="#757474" d="M42.849,184.84c0,0,1.382,1.181,6.493,0.309l-0.557-2.142c0,0-3.255,0.752-6.319,0L42.849,184.84z"/>
</g>
<g>
	<path fill="#8BBBE5" d="M34.848,102.596c0.004,0.895-0.298,6.843-0.298,6.843l-0.815-3.819L34.848,102.596z"/>
</g>
<g>
	<path fill="#F9F9F9" d="M11.039,81.649h-0.679v-0.785h0.815l0.219-1.313h-0.755v-0.785h0.89l0.204-1.185h0.807l-0.204,1.185h1.238
		l0.196-1.185h0.807l-0.204,1.185h0.672v0.785h-0.808l-0.219,1.313h0.755v0.785h-0.891l-0.211,1.215h-0.807l0.211-1.215h-1.238
		l-0.204,1.215h-0.808L11.039,81.649z M13.212,80.865l0.226-1.313h-1.237l-0.226,1.313H13.212z"/>
</g>
</svg>
